<svg width="1080" height="200" viewBox="0 0 1080 200" fill="none" xmlns="http://www.w3.org/2000/svg">
<path d="M485.795 69.332C488.501 69.332 491.329 70.2128 493.058 72.2734L490.29 75.0029C489.213 73.6046 487.508 72.8662 485.675 72.8662C484.162 72.8663 482.935 73.4507 482.935 74.5078C482.935 75.5648 483.828 76.0959 485.555 76.4668L487.571 76.9082C491.225 77.7143 493.61 79.1024 493.61 82.4014C493.61 85.9495 490.349 88 486.045 88C482.641 87.9999 479.614 86.6947 477.789 84.2363L480.555 81.6455C481.93 83.5266 484.016 84.4668 486.211 84.4668C487.916 84.4668 489.161 83.8553 489.161 82.668C489.161 81.4804 488.173 80.9751 486.198 80.5361L484.241 80.0986C480.815 79.3587 478.472 77.7977 478.472 74.6963C478.472 71.4318 481.684 69.3321 485.795 69.332ZM575.937 69.3311C579.598 69.3311 583.111 71.0028 584.793 74.1934L581.313 75.8496C580.319 74.0527 578.382 72.9659 575.968 72.9658C572.549 72.9658 570.157 75.3142 570.157 78.6602C570.157 82.006 572.549 84.3604 575.968 84.3604C578.383 84.3603 580.319 83.2775 581.313 81.4805L584.793 83.1318C583.11 86.3168 579.597 88 575.937 88C569.871 87.9998 565.786 83.9544 565.786 78.6602C565.786 73.3773 569.872 69.3312 575.937 69.3311ZM524.074 69.7207C528.711 69.7207 530.908 71.7824 530.908 75.0869C530.908 77.6995 529.367 79.626 526.267 80.1504L532.92 87.6113H527.684L521.479 80.4561H520.429V87.6113H516.301V69.7207H524.074ZM543.542 83.6641L549.151 69.7207H553.558L545.932 87.6113H541.152L533.526 69.7207H537.948L543.542 83.6641ZM561.217 87.6113H557.09V69.7207H561.217V87.6113ZM511.254 73.2402H502.217V76.8389H510.605V80.3438H502.217V84.0908H511.311V87.6104H498.09V69.7207H511.254V73.2402ZM602.092 73.2402H593.054V76.8389H601.442V80.3438H593.054V84.0908H602.148V87.6104H588.927V69.7207H602.092V73.2402ZM520.429 77.2012H523.728C525.724 77.2011 526.589 76.491 526.589 75.1377C526.589 73.7847 525.724 73.0841 523.728 73.084H520.429V77.2012ZM520.191 57.7314C520.191 60.8942 521.246 62.2362 523.354 62.2363C525.463 62.2363 526.517 60.8943 526.517 57.7314V41.2461H530.734V57.7314C530.734 63.2905 528.338 66.0703 523.354 66.0703C518.37 66.0702 515.974 63.2904 515.974 57.7314V41.2461H520.191V57.7314ZM503.898 42.875C508.882 42.875 511.278 45.559 511.278 51.2139V57.7314C511.278 63.2901 508.882 66.0693 503.898 66.0693C498.914 66.0693 496.518 63.2901 496.518 57.7314V51.2139C496.518 45.559 498.914 42.875 503.898 42.875ZM485.637 47.6396C489.222 47.6531 491.949 49.5467 493.119 52.8467L493.201 53.0859L489.452 54.2617L489.369 54.0264C488.764 52.2659 487.439 51.2948 485.632 51.29H485.62C482.984 51.29 481.343 53.3971 481.334 56.79C481.329 58.4796 481.727 59.8905 482.488 60.8613C483.231 61.8102 484.308 62.3164 485.6 62.3203H485.614C487.411 62.3203 488.735 61.3576 489.353 59.6104L489.436 59.3799L489.438 59.3789L493.177 60.5723L493.09 60.8115C491.903 64.0932 489.171 65.9736 485.591 65.9736H485.56C480.435 65.9602 477.007 62.2616 477.025 56.7754C477.03 55.4451 477.236 54.2075 477.629 53.0986C478.023 51.9898 478.607 51.0098 479.368 50.1855C480.913 48.5226 483.066 47.6397 485.606 47.6396H485.637ZM584.215 47.1895H576.836V52.4609H583.64V56.2939H576.836V61.7578H584.215V65.5918H572.619V43.3555H584.215V47.1895ZM594.748 47.5322C598.937 47.5457 601.329 49.5391 601.32 53C601.31 55.5119 599.913 57.3037 597.465 57.9727L597.464 57.9736L602.975 65.5918L598.035 65.5732L592.96 58.4326L592.269 58.4277L592.246 65.5557L588.162 65.5459L588.216 47.5137L594.748 47.5322ZM547.029 55.915V40H551.246V65.5908H547.125L539.936 49.6758V65.5908H535.719V40H539.84L547.029 55.915ZM569.36 45.2715H564.184V65.5908H559.967V45.2715H554.696V41.2461H569.36V45.2715ZM503.898 46.6133C501.694 46.6133 500.735 48.0505 500.735 51.1172V57.7314C500.735 60.894 501.79 62.2354 503.898 62.2354C506.006 62.2353 507.061 60.894 507.061 57.7314V51.1172C507.061 48.0505 506.102 46.6133 503.898 46.6133ZM592.278 54.9785L594.421 54.9883H594.44C596.741 54.9882 597.011 53.8658 597.016 53.0176C597.021 51.6933 596.172 51.0478 594.431 51.043L592.292 51.0381L592.291 51.0371L592.278 54.9785Z" fill="#F1ECBF"/>
<path d="M245.781 188V168.625L233.188 140.969H242.594L250.562 159.656L258.562 140.969H267.969L255.344 168.625V188H245.781ZM286.906 188.906C285.094 188.906 283.417 188.656 281.875 188.156C280.333 187.677 278.938 186.969 277.688 186.031C276.438 185.094 275.333 183.927 274.375 182.531C273.417 181.135 272.615 179.531 271.969 177.719C271.323 175.906 270.833 173.885 270.5 171.656C270.188 169.427 270.031 167.01 270.031 164.406C270.031 160.49 270.396 157.021 271.125 154C271.854 150.958 272.938 148.396 274.375 146.312C275.812 144.229 277.583 142.646 279.688 141.562C281.792 140.479 284.198 139.938 286.906 139.938C288.698 139.938 290.365 140.188 291.906 140.688C293.469 141.167 294.875 141.875 296.125 142.812C297.375 143.75 298.469 144.917 299.406 146.312C300.365 147.708 301.167 149.312 301.812 151.125C302.479 152.938 302.969 154.958 303.281 157.188C303.615 159.396 303.781 161.802 303.781 164.406C303.781 168.323 303.406 171.802 302.656 174.844C301.927 177.885 300.844 180.448 299.406 182.531C297.99 184.615 296.229 186.198 294.125 187.281C292.042 188.365 289.635 188.906 286.906 188.906ZM286.906 180.156C287.677 180.156 288.375 180.021 289 179.75C289.646 179.479 290.208 179.062 290.688 178.5C291.188 177.938 291.625 177.229 292 176.375C292.375 175.521 292.677 174.521 292.906 173.375C293.156 172.208 293.333 170.875 293.438 169.375C293.562 167.875 293.625 166.219 293.625 164.406C293.625 162.573 293.562 160.917 293.438 159.438C293.333 157.958 293.156 156.635 292.906 155.469C292.677 154.302 292.375 153.302 292 152.469C291.625 151.615 291.188 150.906 290.688 150.344C290.208 149.781 289.646 149.365 289 149.094C288.375 148.823 287.677 148.688 286.906 148.688C286.135 148.688 285.438 148.823 284.812 149.094C284.188 149.365 283.615 149.781 283.094 150.344C282.594 150.906 282.156 151.615 281.781 152.469C281.427 153.302 281.125 154.302 280.875 155.469C280.646 156.635 280.469 157.958 280.344 159.438C280.24 160.917 280.188 162.573 280.188 164.406C280.188 166.24 280.24 167.906 280.344 169.406C280.469 170.885 280.646 172.208 280.875 173.375C281.125 174.521 281.427 175.521 281.781 176.375C282.156 177.229 282.594 177.938 283.094 178.5C283.615 179.062 284.188 179.479 284.812 179.75C285.438 180.021 286.135 180.156 286.906 180.156ZM326.594 188.906C324.969 188.906 323.469 188.76 322.094 188.469C320.719 188.177 319.458 187.729 318.312 187.125C317.188 186.521 316.198 185.76 315.344 184.844C314.49 183.927 313.771 182.854 313.188 181.625C312.604 180.375 312.156 178.958 311.844 177.375C311.552 175.792 311.406 174.042 311.406 172.125V140.969H321V172.312C321 173.688 321.094 174.885 321.281 175.906C321.49 176.906 321.812 177.74 322.25 178.406C322.708 179.052 323.292 179.542 324 179.875C324.729 180.208 325.594 180.375 326.594 180.375C327.594 180.375 328.448 180.208 329.156 179.875C329.865 179.542 330.448 179.052 330.906 178.406C331.365 177.74 331.688 176.906 331.875 175.906C332.083 174.885 332.188 173.688 332.188 172.312V140.969H341.781V172.125C341.781 175.021 341.448 177.521 340.781 179.625C340.115 181.729 339.125 183.469 337.812 184.844C336.521 186.219 334.927 187.24 333.031 187.906C331.156 188.573 329.01 188.906 326.594 188.906ZM350.875 188V140.969H364.281C366.969 140.969 369.333 141.323 371.375 142.031C373.438 142.719 375.156 143.698 376.531 144.969C377.927 146.219 378.979 147.729 379.688 149.5C380.396 151.271 380.75 153.229 380.75 155.375C380.75 156.875 380.573 158.292 380.219 159.625C379.885 160.938 379.365 162.146 378.656 163.25C377.948 164.354 377.062 165.323 376 166.156C374.938 166.99 373.688 167.667 372.25 168.188L383.531 188H373.281L362.75 169.812H360.469V188H350.875ZM360.469 161.562H363.438C364.583 161.562 365.604 161.448 366.5 161.219C367.396 160.969 368.146 160.594 368.75 160.094C369.354 159.594 369.812 158.958 370.125 158.188C370.438 157.396 370.594 156.458 370.594 155.375C370.594 154.312 370.438 153.396 370.125 152.625C369.812 151.833 369.354 151.188 368.75 150.688C368.146 150.167 367.396 149.792 366.5 149.562C365.604 149.312 364.583 149.188 363.438 149.188H360.469V161.562ZM418.031 188.906C416.219 188.906 414.542 188.656 413 188.156C411.458 187.677 410.062 186.969 408.812 186.031C407.562 185.094 406.458 183.927 405.5 182.531C404.542 181.135 403.74 179.531 403.094 177.719C402.448 175.906 401.958 173.885 401.625 171.656C401.312 169.427 401.156 167.01 401.156 164.406C401.156 160.49 401.521 157.021 402.25 154C402.979 150.958 404.062 148.396 405.5 146.312C406.938 144.229 408.708 142.646 410.812 141.562C412.917 140.479 415.323 139.938 418.031 139.938C419.823 139.938 421.49 140.188 423.031 140.688C424.594 141.167 426 141.875 427.25 142.812C428.5 143.75 429.594 144.917 430.531 146.312C431.49 147.708 432.292 149.312 432.938 151.125C433.604 152.938 434.094 154.958 434.406 157.188C434.74 159.396 434.906 161.802 434.906 164.406C434.906 168.323 434.531 171.802 433.781 174.844C433.052 177.885 431.969 180.448 430.531 182.531C429.115 184.615 427.354 186.198 425.25 187.281C423.167 188.365 420.76 188.906 418.031 188.906ZM418.031 180.156C418.802 180.156 419.5 180.021 420.125 179.75C420.771 179.479 421.333 179.062 421.812 178.5C422.312 177.938 422.75 177.229 423.125 176.375C423.5 175.521 423.802 174.521 424.031 173.375C424.281 172.208 424.458 170.875 424.562 169.375C424.688 167.875 424.75 166.219 424.75 164.406C424.75 162.573 424.688 160.917 424.562 159.438C424.458 157.958 424.281 156.635 424.031 155.469C423.802 154.302 423.5 153.302 423.125 152.469C422.75 151.615 422.312 150.906 421.812 150.344C421.333 149.781 420.771 149.365 420.125 149.094C419.5 148.823 418.802 148.688 418.031 148.688C417.26 148.688 416.562 148.823 415.938 149.094C415.312 149.365 414.74 149.781 414.219 150.344C413.719 150.906 413.281 151.615 412.906 152.469C412.552 153.302 412.25 154.302 412 155.469C411.771 156.635 411.594 157.958 411.469 159.438C411.365 160.917 411.312 162.573 411.312 164.406C411.312 166.24 411.365 167.906 411.469 169.406C411.594 170.885 411.771 172.208 412 173.375C412.25 174.521 412.552 175.521 412.906 176.375C413.281 177.229 413.719 177.938 414.219 178.5C414.74 179.062 415.312 179.479 415.938 179.75C416.562 180.021 417.26 180.156 418.031 180.156ZM442.812 188V140.969H456.219C458.906 140.969 461.271 141.323 463.312 142.031C465.375 142.719 467.094 143.698 468.469 144.969C469.865 146.219 470.917 147.729 471.625 149.5C472.333 151.271 472.688 153.229 472.688 155.375C472.688 156.875 472.51 158.292 472.156 159.625C471.823 160.938 471.302 162.146 470.594 163.25C469.885 164.354 469 165.323 467.938 166.156C466.875 166.99 465.625 167.667 464.188 168.188L475.469 188H465.219L454.688 169.812H452.406V188H442.812ZM452.406 161.562H455.375C456.521 161.562 457.542 161.448 458.438 161.219C459.333 160.969 460.083 160.594 460.688 160.094C461.292 159.594 461.75 158.958 462.062 158.188C462.375 157.396 462.531 156.458 462.531 155.375C462.531 154.312 462.375 153.396 462.062 152.625C461.75 151.833 461.292 151.188 460.688 150.688C460.083 150.167 459.333 149.792 458.438 149.562C457.542 149.312 456.521 149.188 455.375 149.188H452.406V161.562ZM481.062 188V140.969H493C495.062 140.969 496.948 141.198 498.656 141.656C500.365 142.094 501.896 142.76 503.25 143.656C504.604 144.552 505.792 145.656 506.812 146.969C507.833 148.281 508.688 149.812 509.375 151.562C510.062 153.292 510.573 155.24 510.906 157.406C511.24 159.552 511.406 161.896 511.406 164.438C511.406 166.979 511.24 169.333 510.906 171.5C510.573 173.646 510.062 175.594 509.375 177.344C508.688 179.094 507.833 180.635 506.812 181.969C505.792 183.281 504.604 184.385 503.25 185.281C501.896 186.177 500.365 186.854 498.656 187.312C496.948 187.771 495.062 188 493 188H481.062ZM490.656 179.781H493.125C494.146 179.781 495.052 179.656 495.844 179.406C496.656 179.135 497.365 178.74 497.969 178.219C498.573 177.677 499.083 177 499.5 176.188C499.917 175.354 500.25 174.375 500.5 173.25C500.771 172.125 500.958 170.833 501.062 169.375C501.188 167.917 501.25 166.281 501.25 164.469C501.25 162.656 501.188 161.031 501.062 159.594C500.958 158.135 500.771 156.844 500.5 155.719C500.25 154.594 499.917 153.615 499.5 152.781C499.083 151.948 498.573 151.271 497.969 150.75C497.365 150.208 496.656 149.812 495.844 149.562C495.052 149.312 494.146 149.188 493.125 149.188H490.656V179.781ZM519.312 188V140.969H544.562V149.594H528.906V159.938H543.406V168.594H528.906V179.375H544.562V188H519.312ZM552.75 188V140.969H566.156C568.844 140.969 571.208 141.323 573.25 142.031C575.312 142.719 577.031 143.698 578.406 144.969C579.802 146.219 580.854 147.729 581.562 149.5C582.271 151.271 582.625 153.229 582.625 155.375C582.625 156.875 582.448 158.292 582.094 159.625C581.76 160.938 581.24 162.146 580.531 163.25C579.823 164.354 578.938 165.323 577.875 166.156C576.812 166.99 575.562 167.667 574.125 168.188L585.406 188H575.156L564.625 169.812H562.344V188H552.75ZM562.344 161.562H565.312C566.458 161.562 567.479 161.448 568.375 161.219C569.271 160.969 570.021 160.594 570.625 160.094C571.229 159.594 571.688 158.958 572 158.188C572.312 157.396 572.469 156.458 572.469 155.375C572.469 154.312 572.312 153.396 572 152.625C571.688 151.833 571.229 151.188 570.625 150.688C570.021 150.167 569.271 149.792 568.375 149.562C567.479 149.312 566.458 149.188 565.312 149.188H562.344V161.562ZM604.5 188V140.969H614.094V188H604.5ZM636.469 188.906C634.531 188.906 632.708 188.646 631 188.125C629.312 187.625 627.802 186.833 626.469 185.75C625.135 184.646 624.01 183.24 623.094 181.531C622.177 179.802 621.531 177.729 621.156 175.312L629.531 172.969C629.76 174.51 630.094 175.781 630.531 176.781C630.99 177.781 631.521 178.573 632.125 179.156C632.75 179.719 633.438 180.115 634.188 180.344C634.958 180.573 635.771 180.688 636.625 180.688C637.125 180.688 637.604 180.635 638.062 180.531C638.521 180.427 638.938 180.271 639.312 180.062C639.688 179.854 640.021 179.604 640.312 179.312C640.625 179.021 640.875 178.688 641.062 178.312C641.271 177.917 641.427 177.49 641.531 177.031C641.656 176.552 641.719 176.042 641.719 175.5C641.719 174.688 641.594 173.969 641.344 173.344C641.115 172.719 640.76 172.146 640.281 171.625C639.823 171.104 639.219 170.615 638.469 170.156C637.74 169.698 636.875 169.25 635.875 168.812L632.312 167.188C630.833 166.521 629.49 165.729 628.281 164.812C627.073 163.875 626.031 162.823 625.156 161.656C624.302 160.469 623.635 159.167 623.156 157.75C622.698 156.312 622.469 154.75 622.469 153.062C622.469 151.729 622.635 150.479 622.969 149.312C623.302 148.146 623.771 147.073 624.375 146.094C624.979 145.115 625.698 144.25 626.531 143.5C627.385 142.729 628.312 142.083 629.312 141.562C630.333 141.042 631.427 140.646 632.594 140.375C633.781 140.083 634.99 139.938 636.219 139.938C637.302 139.938 638.365 140.031 639.406 140.219C640.448 140.385 641.448 140.667 642.406 141.062C643.365 141.438 644.26 141.938 645.094 142.562C645.948 143.167 646.708 143.927 647.375 144.844C648.042 145.74 648.604 146.792 649.062 148C649.521 149.208 649.854 150.583 650.062 152.125L641.75 154.188C641.688 153.417 641.573 152.74 641.406 152.156C641.26 151.552 641.062 151.031 640.812 150.594C640.562 150.135 640.271 149.75 639.938 149.438C639.625 149.125 639.292 148.875 638.938 148.688C638.583 148.5 638.198 148.365 637.781 148.281C637.385 148.177 636.979 148.125 636.562 148.125C636.104 148.125 635.667 148.177 635.25 148.281C634.833 148.365 634.448 148.5 634.094 148.688C633.76 148.875 633.458 149.104 633.188 149.375C632.917 149.625 632.688 149.927 632.5 150.281C632.312 150.615 632.167 150.99 632.062 151.406C631.958 151.823 631.906 152.271 631.906 152.75C631.906 153.458 632.01 154.115 632.219 154.719C632.448 155.323 632.771 155.885 633.188 156.406C633.604 156.906 634.125 157.375 634.75 157.812C635.375 158.229 636.104 158.625 636.938 159L640.562 160.594C642.125 161.302 643.552 162.073 644.844 162.906C646.156 163.74 647.281 164.719 648.219 165.844C649.156 166.969 649.885 168.271 650.406 169.75C650.948 171.229 651.219 172.948 651.219 174.906C651.219 176.323 651.042 177.656 650.688 178.906C650.354 180.135 649.875 181.271 649.25 182.312C648.646 183.354 647.896 184.281 647 185.094C646.125 185.906 645.135 186.604 644.031 187.188C642.948 187.75 641.771 188.177 640.5 188.469C639.229 188.76 637.885 188.906 636.469 188.906ZM672.062 188V140.969H685.469C688.156 140.969 690.521 141.323 692.562 142.031C694.625 142.719 696.344 143.698 697.719 144.969C699.115 146.219 700.167 147.729 700.875 149.5C701.583 151.271 701.938 153.229 701.938 155.375C701.938 156.875 701.76 158.292 701.406 159.625C701.073 160.938 700.552 162.146 699.844 163.25C699.135 164.354 698.25 165.323 697.188 166.156C696.125 166.99 694.875 167.667 693.438 168.188L704.719 188H694.469L683.938 169.812H681.656V188H672.062ZM681.656 161.562H684.625C685.771 161.562 686.792 161.448 687.688 161.219C688.583 160.969 689.333 160.594 689.938 160.094C690.542 159.594 691 158.958 691.312 158.188C691.625 157.396 691.781 156.458 691.781 155.375C691.781 154.312 691.625 153.396 691.312 152.625C691 151.833 690.542 151.188 689.938 150.688C689.333 150.167 688.583 149.792 687.688 149.562C686.792 149.312 685.771 149.188 684.625 149.188H681.656V161.562ZM710.312 188V140.969H735.562V149.594H719.906V159.938H734.406V168.594H719.906V179.375H735.562V188H710.312ZM740.75 188L750.594 140.969H763.469L773.281 188H763.594L761.375 175.969H752.656L750.438 188H740.75ZM753.906 167.375H760.125L757.031 150.125L753.906 167.375ZM779.812 188V140.969H791.75C793.812 140.969 795.698 141.198 797.406 141.656C799.115 142.094 800.646 142.76 802 143.656C803.354 144.552 804.542 145.656 805.562 146.969C806.583 148.281 807.438 149.812 808.125 151.562C808.812 153.292 809.323 155.24 809.656 157.406C809.99 159.552 810.156 161.896 810.156 164.438C810.156 166.979 809.99 169.333 809.656 171.5C809.323 173.646 808.812 175.594 808.125 177.344C807.438 179.094 806.583 180.635 805.562 181.969C804.542 183.281 803.354 184.385 802 185.281C800.646 186.177 799.115 186.854 797.406 187.312C795.698 187.771 793.812 188 791.75 188H779.812ZM789.406 179.781H791.875C792.896 179.781 793.802 179.656 794.594 179.406C795.406 179.135 796.115 178.74 796.719 178.219C797.323 177.677 797.833 177 798.25 176.188C798.667 175.354 799 174.375 799.25 173.25C799.521 172.125 799.708 170.833 799.812 169.375C799.938 167.917 800 166.281 800 164.469C800 162.656 799.938 161.031 799.812 159.594C799.708 158.135 799.521 156.844 799.25 155.719C799 154.594 798.667 153.615 798.25 152.781C797.833 151.948 797.323 151.271 796.719 150.75C796.115 150.208 795.406 149.812 794.594 149.562C793.802 149.312 792.896 149.188 791.875 149.188H789.406V179.781ZM824.656 188V168.625L812.062 140.969H821.469L829.438 159.656L837.438 140.969H846.844L834.219 168.625V188H824.656Z" fill="#F1ECBF"/>
</svg>
